<svg xmlns="http://www.w3.org/2000/svg" width="119.94mm" height="10.01mm" viewBox="0 0 340 28.37"><defs><style>.cls-1{fill:#545556;}.cls-2{fill:#aeaaac;}.cls-3{fill:#0d64b0;}.cls-4{fill:none;}</style></defs><g id="logo"><path class="cls-1" d="M69.74,10.4H72a.19.19,0,0,1,.2.2V24.08a.2.2,0,0,1-.2.21H69.74a.21.21,0,0,1-.21-.21V18.34a.11.11,0,0,0-.12-.12H63.59a.11.11,0,0,0-.12.12v5.74a.2.2,0,0,1-.21.21h-2.2a.2.2,0,0,1-.21-.21V10.6a.19.19,0,0,1,.21-.2h2.2a.19.19,0,0,1,.21.2v5.23a.11.11,0,0,0,.12.12h5.82a.11.11,0,0,0,.12-.12V10.6A.2.2,0,0,1,69.74,10.4Z"/><path class="cls-1" d="M77.37,22.84a1.56,1.56,0,0,1-1.61,1.6,1.61,1.61,0,0,1,0-3.22A1.56,1.56,0,0,1,77.37,22.84Z"/><path class="cls-1" d="M84.91,24.53c-3.66,0-5.68-1.9-5.68-5.33V10.6a.19.19,0,0,1,.2-.2h2.21a.19.19,0,0,1,.2.2v8.29c0,2.21.9,3.43,3.07,3.43S88,21.08,88,18.89V10.6a.19.19,0,0,1,.2-.2h2.21a.2.2,0,0,1,.21.2v8.6C90.59,22.63,88.5,24.53,84.91,24.53Z"/><path class="cls-1" d="M94.74,22.84a1.59,1.59,0,1,1-3.18,0,1.59,1.59,0,1,1,3.18,0Z"/><path class="cls-1" d="M106.09,10.15a9.76,9.76,0,0,1,3.32.47.19.19,0,0,1,.13.24l-.33,1.82a.18.18,0,0,1-.24.15,8.59,8.59,0,0,0-2.86-.41c-2.74,0-5,1.63-5,4.92,0,3.13,2,4.94,4.7,4.94A6.61,6.61,0,0,0,108,22a.28.28,0,0,0,.19-.31V19a.11.11,0,0,0-.12-.12h-2.46a.19.19,0,0,1-.2-.2V16.89a.19.19,0,0,1,.2-.2h4.87a.19.19,0,0,1,.2.2v6a.49.49,0,0,1-.22.45,8.2,8.2,0,0,1-4.76,1.22c-4.25,0-7.26-2.72-7.26-7.19S101.77,10.15,106.09,10.15Z"/><path class="cls-1" d="M113.68,13.5h2.11a.19.19,0,0,1,.2.2v2.09c0,.14.08.14.12,0a4,4,0,0,1,3.21-2.58.18.18,0,0,1,.19.19v1.88a.23.23,0,0,1-.23.24,3.85,3.85,0,0,0-3.06,3.23,7.33,7.33,0,0,0-.23,1.88v3.41a.2.2,0,0,1-.2.21h-2.11a.2.2,0,0,1-.2-.21V13.7A.19.19,0,0,1,113.68,13.5Z"/><path class="cls-1" d="M132.23,18.93c0,3.37-2,5.6-5.49,5.6s-5.5-2.23-5.5-5.6,2-5.68,5.5-5.68S132.23,15.56,132.23,18.93Zm-2.55,0c0-2.08-1-3.61-2.94-3.61s-2.94,1.53-2.94,3.61,1,3.54,2.94,3.54S129.68,21,129.68,18.93Z"/><path class="cls-1" d="M144.2,24.29h-2.1a.21.21,0,0,1-.21-.21V22.26c0-.12,0-.14-.1,0a4,4,0,0,1-3.61,2.29c-2.41,0-3.46-1.45-3.46-4.31V13.7a.2.2,0,0,1,.21-.2H137a.2.2,0,0,1,.21.2v5.85c0,1.77.28,2.92,1.63,2.92s2.6-1.35,2.94-3.86a10.13,10.13,0,0,0,.08-1.58V13.7a.2.2,0,0,1,.21-.2h2.1a.2.2,0,0,1,.21.2V24.08A.21.21,0,0,1,144.2,24.29Z"/><path class="cls-1" d="M147.31,28.17V13.7a.19.19,0,0,1,.2-.2h2a.19.19,0,0,1,.21.2l0,1.48c0,.1.08.08.12,0a4,4,0,0,1,3.52-2c3.06,0,4.35,2.31,4.35,5.54s-1.37,5.74-4.7,5.74A4.48,4.48,0,0,1,150,23.41a.08.08,0,0,0-.14.06v4.7a.19.19,0,0,1-.2.2h-2.11A.19.19,0,0,1,147.31,28.17Zm7.9-9.28c0-1.9-.49-3.57-2.35-3.57a3.26,3.26,0,0,0-3.06,2.92,7.88,7.88,0,0,0-.08,1.37,6.23,6.23,0,0,0,.1,1.31c.2,1,1.41,1.55,2.61,1.55C154.66,22.47,155.21,20.65,155.21,18.89Z"/><path class="cls-1" d="M168.51,19.34a.24.24,0,0,0-.24-.12h-1.76a.11.11,0,0,0-.12.12v4.74a.21.21,0,0,1-.21.21H164a.2.2,0,0,1-.21-.21V10.6a.19.19,0,0,1,.21-.2h3.82c2.65,0,5.51.91,5.51,4.26A3.8,3.8,0,0,1,171,18.4a.12.12,0,0,0,0,.19c1,1.45,2.47,3.69,3.6,5.47.06.1,0,.23-.13.23h-2.55a.33.33,0,0,1-.31-.17C170.45,22.35,168.82,19.75,168.51,19.34Zm2.15-4.49c0-1.8-1.35-2.33-3-2.33h-1.16a.11.11,0,0,0-.12.12v4.52a.11.11,0,0,0,.12.12h1.18C169.31,17.28,170.66,16.56,170.66,14.85Z"/><path class="cls-1" d="M180.56,24.53c-4,0-6-2.18-6-5.62s2.16-5.66,5.37-5.66c3.39,0,4.7,2.07,4.7,4.64a5.69,5.69,0,0,1-.1,1.11c-.11.46-.39.61-1.09.61h-6.23a.11.11,0,0,0-.12.12c.12,1.63,1.37,2.76,3.66,2.76a7.18,7.18,0,0,0,2.61-.47c.12-.06.23,0,.25.08l.28,1.59c0,.13,0,.21-.12.25A7.84,7.84,0,0,1,180.56,24.53Zm-3.33-6.68h4.64c.27,0,.37-.06.37-.41a2.09,2.09,0,0,0-2.39-2.24,2.62,2.62,0,0,0-2.74,2.55C177.11,17.81,177.15,17.85,177.23,17.85Z"/><path class="cls-1" d="M186.67,24v-1.8a.12.12,0,0,1,.16-.12,10.25,10.25,0,0,0,3.07.47c1,0,1.88-.27,1.88-1.23,0-.71-.37-1-2.41-1.65s-2.8-1.33-2.8-3c0-2.41,2-3.4,4.23-3.4a8.74,8.74,0,0,1,2.9.45.14.14,0,0,1,.08.21l-.47,1.71c0,.11-.12.11-.2.07a6.55,6.55,0,0,0-2.35-.43c-.9,0-1.76.32-1.76,1.2,0,.59.24,1,2,1.47,2.11.6,3.23,1.39,3.23,3.19,0,2.53-2,3.41-4.23,3.41a12.55,12.55,0,0,1-3.23-.37C186.73,24.12,186.67,24.08,186.67,24Z"/><path class="cls-1" d="M202.05,24.53c-4,0-6-2.18-6-5.62s2.16-5.66,5.37-5.66c3.39,0,4.7,2.07,4.7,4.64A5.69,5.69,0,0,1,206,19c-.11.46-.39.61-1.09.61H198.7a.11.11,0,0,0-.12.12c.12,1.63,1.37,2.76,3.66,2.76a7.18,7.18,0,0,0,2.61-.47c.12-.06.23,0,.25.08l.28,1.59c0,.13,0,.21-.12.25A7.84,7.84,0,0,1,202.05,24.53Zm-3.33-6.68h4.64c.27,0,.37-.06.37-.41a2.09,2.09,0,0,0-2.39-2.24,2.62,2.62,0,0,0-2.74,2.55C198.6,17.81,198.64,17.85,198.72,17.85Z"/><path class="cls-1" d="M217.7,22.47a2.29,2.29,0,0,0,.59-.08c.13,0,.21,0,.21.14v1.41c0,.22-.72.45-1.56.45A1.8,1.8,0,0,1,215,23c0-.06-.06-.06-.1,0a4.11,4.11,0,0,1-3.53,1.57c-2,0-3.74-1-3.74-3.29,0-2.51,2-3.49,6-3.49h.88c.08,0,.13,0,.13-.12v-.47c0-1.11-.31-1.84-2.17-1.84a8.82,8.82,0,0,0-2.74.43c-.1,0-.2,0-.22-.13L209.28,14a.24.24,0,0,1,.15-.29,11.6,11.6,0,0,1,3.16-.47c2.7,0,4.58.8,4.48,3.87l-.13,4.06C216.92,22,217.13,22.47,217.7,22.47Zm-3.13-2.72v-.1c0-.06,0-.1-.08-.1a10.77,10.77,0,0,0-1.18,0c-1.62,0-3.21.16-3.21,1.59a1.48,1.48,0,0,0,1.68,1.49A2.55,2.55,0,0,0,214.57,19.75Z"/><path class="cls-1" d="M220.72,13.5h2.11a.19.19,0,0,1,.2.2v2.09c0,.14.08.14.12,0a4,4,0,0,1,3.21-2.58.18.18,0,0,1,.19.19v1.88a.23.23,0,0,1-.23.24,3.85,3.85,0,0,0-3.06,3.23,7.33,7.33,0,0,0-.23,1.88v3.41a.2.2,0,0,1-.2.21h-2.11a.2.2,0,0,1-.2-.21V13.7A.19.19,0,0,1,220.72,13.5Z"/><path class="cls-1" d="M233.43,24.53c-3.39,0-5.58-2-5.58-5.53s2.39-5.75,5.84-5.75a7,7,0,0,1,2.05.27.19.19,0,0,1,.12.23l-.27,1.69a.14.14,0,0,1-.2.08,6.2,6.2,0,0,0-1.61-.2c-1.92,0-3.35,1.35-3.35,3.68,0,2.1,1.18,3.45,3.2,3.45a5.25,5.25,0,0,0,1.78-.27c.12,0,.21,0,.21.12v1.78c0,.08,0,.14-.15.19A7,7,0,0,1,233.43,24.53Z"/><path class="cls-1" d="M237.84,9H240a.19.19,0,0,1,.2.2v6.29c0,.12,0,.15.12,0A4,4,0,0,1,244,13.25c2.45,0,3.51,1.46,3.51,4.32v6.51a.2.2,0,0,1-.2.21h-2.11a.2.2,0,0,1-.2-.21V18.24c0-1.8-.31-2.92-1.7-2.92s-2.67,1.33-3,3.86a10.07,10.07,0,0,0-.08,1.57v3.33a.2.2,0,0,1-.2.21h-2.11a.2.2,0,0,1-.2-.21V9.23A.19.19,0,0,1,237.84,9Z"/><path class="cls-1" d="M256,24.08V10.6a.19.19,0,0,1,.21-.2h2.22a.19.19,0,0,1,.21.2V24.08a.2.2,0,0,1-.21.21h-2.22A.2.2,0,0,1,256,24.08Z"/><path class="cls-1" d="M262.68,13.5h2.11a.19.19,0,0,1,.2.2v1.82c0,.12,0,.15.12,0a4,4,0,0,1,3.68-2.29c2.45,0,3.51,1.46,3.51,4.32v6.51a.2.2,0,0,1-.2.21H270a.2.2,0,0,1-.2-.21V18.24c0-1.8-.31-2.92-1.7-2.92s-2.67,1.33-3,3.86a10.07,10.07,0,0,0-.08,1.57v3.33a.2.2,0,0,1-.2.21h-2.11a.2.2,0,0,1-.2-.21V13.7A.19.19,0,0,1,262.68,13.5Z"/><path class="cls-1" d="M275.27,24v-1.8a.12.12,0,0,1,.16-.12,10.15,10.15,0,0,0,3.06.47c1,0,1.88-.27,1.88-1.23,0-.71-.37-1-2.41-1.65s-2.8-1.33-2.8-3c0-2.41,2-3.4,4.23-3.4a8.7,8.7,0,0,1,2.9.45.14.14,0,0,1,.08.21l-.47,1.71c0,.11-.12.11-.2.07a6.51,6.51,0,0,0-2.35-.43c-.9,0-1.76.32-1.76,1.2,0,.59.25,1,2.05,1.47,2.1.6,3.22,1.39,3.22,3.19,0,2.53-2,3.41-4.22,3.41a12.49,12.49,0,0,1-3.23-.37C275.33,24.12,275.27,24.08,275.27,24Z"/><path class="cls-1" d="M286.07,15.58H284.6a.19.19,0,0,1-.2-.2V13.7a.19.19,0,0,1,.2-.2h1.47a.11.11,0,0,0,.12-.12V10.91a.2.2,0,0,1,.21-.21h2.08a.2.2,0,0,1,.21.21v2.47a.11.11,0,0,0,.12.12h2.29a.19.19,0,0,1,.2.2v1.68a.19.19,0,0,1-.2.2h-2.29c-.08,0-.12,0-.12.13V21.1c0,.8.2,1.29,1.18,1.29a3.48,3.48,0,0,0,.92-.09c.18,0,.29,0,.29.17v1.47a.19.19,0,0,1-.13.18,5.54,5.54,0,0,1-1.83.27c-1.9,0-2.93-.78-2.93-2.7v-6C286.19,15.62,286.15,15.58,286.07,15.58Z"/><path class="cls-1" d="M297,13.7V24.08a.2.2,0,0,1-.2.21h-2.13a.2.2,0,0,1-.2-.21V15.71c0-.09,0-.13-.12-.13H293.3a.19.19,0,0,1-.2-.2V13.7a.19.19,0,0,1,.2-.2h3.54A.19.19,0,0,1,297,13.7Zm.37-3.73a1.63,1.63,0,0,1-3.25,0,1.63,1.63,0,1,1,3.25,0Z"/><path class="cls-1" d="M301.15,15.58h-1.47a.19.19,0,0,1-.21-.2V13.7a.19.19,0,0,1,.21-.2h1.47a.11.11,0,0,0,.12-.12V10.91a.19.19,0,0,1,.2-.21h2.09a.19.19,0,0,1,.2.21v2.47a.11.11,0,0,0,.12.12h2.29a.2.2,0,0,1,.21.2v1.68a.2.2,0,0,1-.21.2h-2.29c-.08,0-.12,0-.12.13V21.1c0,.8.21,1.29,1.19,1.29a3.52,3.52,0,0,0,.92-.09c.18,0,.28,0,.28.17v1.47a.19.19,0,0,1-.12.18,5.61,5.61,0,0,1-1.84.27c-1.9,0-2.92-.78-2.92-2.7v-6C301.27,15.62,301.23,15.58,301.15,15.58Z"/><path class="cls-1" d="M318.41,24.29H316.3a.2.2,0,0,1-.2-.21V22.26c0-.12,0-.14-.1,0a4,4,0,0,1-3.62,2.29c-2.41,0-3.45-1.45-3.45-4.31V13.7a.19.19,0,0,1,.2-.2h2.11a.19.19,0,0,1,.2.2v5.85c0,1.77.29,2.92,1.64,2.92s2.59-1.35,2.94-3.86A10.13,10.13,0,0,0,316.1,17V13.7a.19.19,0,0,1,.2-.2h2.11a.19.19,0,0,1,.2.2V24.08A.2.2,0,0,1,318.41,24.29Z"/><path class="cls-1" d="M322.68,15.58h-1.47a.19.19,0,0,1-.21-.2V13.7a.19.19,0,0,1,.21-.2h1.47a.11.11,0,0,0,.12-.12V10.91a.19.19,0,0,1,.2-.21h2.09a.19.19,0,0,1,.2.21v2.47a.11.11,0,0,0,.12.12h2.29a.19.19,0,0,1,.21.2v1.68a.19.19,0,0,1-.21.2h-2.29c-.08,0-.12,0-.12.13V21.1c0,.8.21,1.29,1.19,1.29a3.52,3.52,0,0,0,.92-.09c.18,0,.28,0,.28.17v1.47a.19.19,0,0,1-.12.18,5.61,5.61,0,0,1-1.84.27c-1.9,0-2.92-.78-2.92-2.7v-6C322.8,15.62,322.76,15.58,322.68,15.58Z"/><path class="cls-1" d="M335.93,24.53c-4,0-6-2.18-6-5.62s2.16-5.66,5.37-5.66c3.39,0,4.7,2.07,4.7,4.64a5.69,5.69,0,0,1-.1,1.11c-.1.46-.39.61-1.08.61h-6.24a.11.11,0,0,0-.12.12c.12,1.63,1.37,2.76,3.66,2.76a7.18,7.18,0,0,0,2.61-.47c.13-.06.23,0,.25.08l.28,1.59c0,.13,0,.21-.12.25A7.8,7.8,0,0,1,335.93,24.53Zm-3.32-6.68h4.63c.27,0,.37-.06.37-.41a2.09,2.09,0,0,0-2.39-2.24,2.62,2.62,0,0,0-2.74,2.55C332.48,17.81,332.52,17.85,332.61,17.85Z"/><polygon class="cls-2" points="38.51 0 30.49 0 28.12 8.84 36.14 8.84 38.51 0"/><path class="cls-2" d="M54.54,0h-8L42.44,15.23c-.85,3.18-2.27,3.21-4,3.21H33.57l.85-3.19h-8l-2.35,8.8h16c4.43,0,8,0,10.16-8Z"/><path class="cls-3" d="M36.14,8.84h-8L30.49,0h-8L20.11,8.84h-8L14.46,0C10,0,6.46,0,4.3,8L0,24.05H8l2.35-8.8h8L16,24.05h8l2.35-8.8h8Z"/></g><g id="guide"><rect class="cls-4" x="-464.79" y="-26.37" width="1269.57" height="153.07"/></g></svg>